<?xml version="1.0" encoding="UTF-8" standalone="no"?>
<svg version="1.1" xmlns="http://www.w3.org/2000/svg" viewBox="0 0 675 419">
<path fill="#BE993D" d="m672.1 51.935c-2.403-0.381-2.985 1.665-4.583 0 0.613-2.649-1.138-2.936-0.764-5.346-2.028-0.008-4.361 0.288-5.345-0.764-1.272-8.148-4.507-14.332-6.111-22.148-3.019-0.035-4.428-1.682-6.874-2.292-1.881 1.683-3.348 3.779-6.109 4.583-2.154-0.138-0.953-3.63-3.819-3.055-3.006 7.371-8.358 19.026-4.583 28.258-1.961 3.13-4.006 6.177-3.818 11.456-2.741-0.632-3.695 1.723-5.347 0-0.757 2.298-0.564 5.546-3.054 6.11-7.92 1.403-16.765 4.956-25.204 6.874-4.043 0.919-8.251 0.248-11.456 2.291-3.705 2.363-4.988 7.808-7.638 11.456-1.84 2.534-5.636 2.924-4.582 6.874 3.527 1.223 2.864 5.315 3.055 7.638-7.206 10.384-20.612 5.326-32.078 10.692 0.216 3.603 2.517 5.121 3.819 7.638-9.844 13.322-24.034 22.299-39.714 29.786-2.422-3.179-10.097-1.105-11.456-5.346 3.971-3.801 3.205-14.208 9.164-13.748-0.738-9.954-2.045-19.34-8.4-23.676-5.004 0.597-4.321 6.882-8.402 8.401-3.044 0.499-2.188-2.904-2.292-5.346 8.75-2.259 2.881-15.761 4.583-19.857-2.014 0.232-1.97-1.595-2.291-3.056-8.231-0.035-15.269-9.172-19.857-0.763-0.672 2.454 2.517 1.047 2.291 3.055-2.642-0.605-3.225 0.849-4.582 1.527-0.577 4.649 2.081 7.788-2.292 8.402-1.167-3.668 3.244-6.548 0-7.638-7.016 7.677-7.392 15.844-8.401 29.022 8.514 8.233 5.983 28.841-5.346 32.077-15.997-14.376-7.03-43.959-3.055-60.335-3.102 3.78-6.301 11.51-9.929 12.22 2.568-7.362 7.223-12.635 9.165-20.621 6.544 1.668 10.268-3.265 18.329-5.347 6.788 1.12 12.786-0.06 17.567-0.763-3.459-0.614-4.395-3.753-3.819-8.402-4.078 0.115-7.123 3.186-10.692 1.528v-4.583c-11.12 1.238-16.886 8.408-26.731 6.874-1.291-6.189-10.037-7.456-12.22-4.582 1.174-4.937 5.164-7.056 7.638-10.693-7.547 0.092-10.205 5.07-13.748 9.165-5.223 2.924-11.295 4.998-16.039 8.401-0.817-2.886-4.53 0.028-5.346-1.527 0.678-1.613 2.325-2.257 2.291-4.583-3.913-1.446-8.944 6.197-14.511 3.056 5.569-3.092 7.845-10.03 12.983-13.748 4.318-3.123 10.599-2.514 13.749-7.638-4.499-0.888-11.67-0.314-14.512-3.054-3.947 4.064-11.929 3.641-12.984-1.528-6.564 2.018-12.108-7.346-18.33-1.528-3.165-1.163-5.513-3.141-9.928-3.054-3.33-2.271-0.202-11.001-6.11-10.693-1.752 0.794 0.362 5.454-1.528 6.11-113.11 2.114-208.6-17.465-294.8-39.715 3.55 5.594 0.333 12.353 1.527 16.803-3.635-2.892-1.829-5.301-1.527-7.638-3.074-0.527-1.876 3.217-4.583 3.055-7.854-1.31-12.175-6.154-18.33-9.164-0.551 7.119-1.201 19.025 2.292 24.439-1.331-0.057-2.376 0.171-3.056 0.764-0.816 2.853 1.897 2.177 1.528 4.582-3.156 2.003-4.293 5.943-0.764 7.638-2.452-0.669-1.583 1.98-3.055 2.291-5.303 17.355-11.496 33.819-21.384 46.588 0.206 4.535-0.833 7.824-1.528 11.457 4.575 11.839-5.561 21.141-9.165 29.786 8.618 5.474 0.606 15.539 1.528 22.912 0.399 3.191 5.856 8.016 6.11 12.984 0.248 4.853 0.71 6.359 3.818 9.165-4.041 6.542-0.096 15.03 4.583 17.565-0.423 2.633-3.511 2.6-3.819 5.347 0.311 10.033 10.042 17.999 10.692 26.732 0.301 4.027-3.658 6.943-0.763 10.692 13.363-0.38 14.813 11.153 24.44 14.511 0.453 2.436-1.434 2.362 0 3.818 8.894 2.053 12.058 9.836 11.456 21.385 9.365 3.364 22.248 3.21 32.841 5.347-0.01 1.517-2.084 0.971-1.528 3.054 12.009 5.923 23.313 14.111 34.369 20.621 14.247 8.392 31.074 10.434 52.698 12.985 0.389-2.667 0.344-5.767 1.527-7.638 7.457 1.199 14.762 2.55 22.913 3.055 5.289 6.676 9.32 14.61 17.566 18.33 4.314 4.612 2.948 9.626 4.582 16.039 2.163 8.481 12.91 10.467 19.858 15.274 5.458-3.452 4.766-13.054 12.984-13.747 16.173 1.902 24.079 12.071 26.731 27.494 5.504 2.897 6.914 9.888 12.219 12.985-3.371 19.216 18.284 23.906 31.314 26.73-2.411-10.168-1.879-20.223-0.763-31.313 12.888-8.75 28.594-14.685 38.951-25.967 10.874-9.09 30.017-2.356 41.242-2.292-0.433-4.295-5.109-0.134-6.11-3.055 4.788-4.433 8.599 3.012 12.983 3.82 0.172 1.443-0.86 1.684-0.764 3.054 2.66 1.159 4.738 2.9 8.402 3.055 1.89-1.419 2.871-3.748 6.11-3.818 2.522 1.52-1.893 3.261 0 3.818 6.056-1.88 1.361-5.822 6.11-7.638 1.151 3.632 11.428 8.475 12.219 3.056-2.142-2.949-8.472-1.71-9.928-5.347 2.394-2.012 5.414-2.687 3.819-8.401-3.391-0.335-1.89 4.221-6.11 3.055 3.403-9.091 11.365-7.942 22.148-8.401 1.507-1.295 0.287-5.314 3.056-5.347 1.602 1.26 3.695 5.59 0.763 6.874 12.623-4.124 31.008-7.503 37.423 4.583 6.769-0.565 12.933-3.358 13.748-7.637 13.074-1.364 12.235 11.186 22.912 12.22 6.398 5.213-0.89 19.436 5.347 24.439 1.871-2.132-0.586-5.143 0-5.346 1.143 0.13 2.818-0.273 3.055 0.764 0.315 3.625-2.884 3.735-3.055 6.873 3.974 4.428 7.186 9.616 9.928 15.275 2.159 0.631 1.979-1.076 3.819-0.763 1.561 2.512 2.378 5.768 3.818 8.401 6.708-1.535 9.566 5.798 11.457 11.456 2.899-0.94 7.902-3.78 9.928-3.055-1.016 4.595-8.661 6.599-8.401 9.929 5.321-3.845 10.207-8.124 11.457-16.039-2.715-1.187-0.461 2.594-2.292 2.291 5.77-20.018-5.261-33.729-12.22-45.824 0.01-1.518 2.084-0.972 1.528-3.056-11.556-10.352-23.752-31.079-16.802-51.171 1.615-4.671 6.782-7.292 6.873-12.219 7.273-2.402 9.167-10.181 15.275-13.747-0.434-10.109 5.064-14.286 13.747-15.276-0.677-15.123 18.644-12.241 19.094-22.148-0.598 1.341-6.61 2.272-7.638 0 3.187 2.547 5.327-4.097 2.292-5.346 4.939 1.419 10.232-0.797 10.693-6.11-1.22-2.088-4.661 1.783-6.111-0.764 2.718 0.172 4.577-0.516 5.347-2.291l-0.382-1.147 1.146 0.383c-3.244-4.903-5.837-10.457-8.402-16.039-1.735 0.007-3.685-0.202-4.831 0.393 3.033-2.523-3.508-5.488-2.043-7.266 0.767-0.003 0.91 0.618 1.528 0.764-0.442-5.669-2.141-10.079-6.11-12.221 2.054 0.527 1.476-1.578 2.291-2.291-5.304-3.397-6.131-17.564-0.763-18.33-3.463 3.195 2.21 7.013-1.528 10.693 3.425 0.045 1.259 1.086 1.528 5.346 4.064 0.264 3.227 5.428 6.109 6.873 1.118-2.717-2.454-4.576-0.764-5.346 8.017 2.819-1.466 13.991 4.583 18.331 1.519-9.854 8.592-19.102 4.582-29.787-5.353-1.519-6.12-7.627-9.165-11.456 2.072 3.02 5.001 5.182 9.929 5.346 0.313 1.84-1.394 1.66-0.764 3.819 5.738-5.422 10.268-15.407 7.638-26.731-0.903-1.88-2.885 1.564-3.818-0.764 1.556-0.224 1.497-2.066 3.054-2.291l-0.381-2.062 1.145-1.757c5.395-10.899 21.131-11.455 30.55-18.33 0.953-2.292-0.365-3.82 3.055-4.582 0.435 2.471-0.232 3.842-1.528 4.582 3.468-1.878 5.135-5.557 9.929-6.11-0.114-3.959-1.186-6.96-5.346-6.874 0.362 2.439 3.916 1.685 3.819 4.583-6.61 5.852-7.956-7.106-12.984-5.346 0.469-6.738-0.393-15.959 3.055-25.968 4.252 0.734 7.114-3.915 10.692-6.109 0.56-2.648-0.834-7.245 0-7.638 0.896 1.141 3.174 0.9 3.055 3.055-1.809 1.151-2.819 1.159-1.527 3.819 3.845-0.917 2.066-6.155 4.583-8.401-0.214 1.995-0.258 3.822 2.291 3.055 1.447-4.499-0.924-2.135-1.528-4.583 5.758 2.847 17.002-8.796 9.929-14.511z"/>
</svg>
